<?xml version="1.0" standalone="no"?>
<!DOCTYPE svg PUBLIC "-//W3C//DTD SVG 20010904//EN"
 "http://www.w3.org/TR/2001/REC-SVG-20010904/DTD/svg10.dtd">
<svg version="1.0" xmlns="http://www.w3.org/2000/svg"
 width="800.000000pt" height="800.000000pt" viewBox="0 0 800.000000 800.000000"
 preserveAspectRatio="xMidYMid meet">

<g transform="translate(0.000000,800.000000) scale(0.100000,-0.100000)"
fill="#000000" stroke="none">
<path d="M3890 7770 c-2227 -6 -2065 -2 -2220 -54 -440 -145 -751 -470 -860
-896 -10 -41 -24 -116 -30 -166 -13 -117 -13 -5182 1 -5299 9 -78 30 -169 49
-210 5 -11 21 -49 35 -84 53 -128 158 -281 277 -401 174 -176 355 -273 648
-349 106 -27 587 -33 2430 -27 1807 5 1858 6 1955 26 55 11 118 26 140 34 22
8 46 15 53 16 26 0 189 85 276 144 110 73 282 242 354 349 63 91 131 225 161
317 53 164 51 27 51 2835 0 2759 1 2711 -45 2836 -9 24 -20 58 -24 75 -16 61
-121 260 -178 336 -85 112 -150 178 -251 255 -85 64 -215 139 -292 168 -19 8
-60 23 -90 35 -77 29 -169 49 -253 55 -40 3 -83 7 -97 8 -14 1 -954 0 -2090
-3z m2167 -283 c252 -45 422 -130 597 -296 127 -122 226 -298 262 -464 21
-103 20 -3619 -2 -3569 -15 33 -99 331 -134 472 -16 62 -21 136 -27 413 l-8
338 -320 163 c-391 199 -770 394 -1090 563 -66 35 -149 78 -185 96 -36 17 -66
35 -68 40 -2 4 -7 7 -12 7 -4 0 -65 32 -136 70 -70 39 -130 70 -133 70 -15 0
-41 37 -41 60 0 20 8 31 34 45 39 21 20 28 291 -95 148 -67 177 -80 180 -80 2
0 78 -36 170 -80 92 -44 169 -80 170 -80 2 0 65 -29 140 -65 74 -36 137 -65
139 -65 3 0 84 -39 182 -86 202 -97 364 -174 368 -174 2 0 69 -31 150 -70 80
-39 153 -70 161 -70 12 0 13 42 8 318 -3 174 -8 320 -12 323 -3 3 -139 38
-301 78 -162 39 -317 78 -345 85 -84 22 -137 36 -195 51 -90 23 -160 41 -245
65 -44 12 -102 28 -130 35 -27 8 -99 27 -160 43 -60 17 -135 37 -165 45 -46
12 -170 47 -305 86 -221 64 -319 98 -329 114 -18 28 4 36 69 26 33 -6 105 -16
160 -24 237 -35 422 -65 495 -81 36 -8 73 -14 84 -14 10 0 48 -7 85 -15 36 -8
118 -24 181 -35 63 -12 135 -26 160 -32 25 -6 77 -16 115 -24 39 -7 135 -27
215 -44 80 -18 168 -36 195 -41 50 -9 127 -25 260 -54 39 -8 93 -16 120 -18
l50 -2 3 240 c1 132 0 250 -3 261 l-5 22 -807 7 c-1026 8 -1388 16 -1403 31
-7 7 -10 22 -8 35 2 19 10 25 33 26 17 2 84 9 150 18 213 26 505 45 1155 75
124 5 284 14 355 20 72 5 219 13 328 16 l197 7 6 24 c8 30 -2 397 -12 436 -4
19 -13 27 -28 27 -20 0 -145 -23 -301 -56 -38 -8 -115 -24 -170 -35 -110 -22
-365 -75 -520 -108 -55 -12 -124 -26 -153 -31 -30 -5 -62 -12 -72 -15 -10 -3
-53 -13 -96 -21 -139 -27 -218 -43 -264 -53 -25 -5 -83 -17 -130 -26 -47 -9
-116 -23 -153 -32 -38 -8 -94 -19 -125 -24 -32 -5 -77 -13 -101 -18 -25 -5
-51 -7 -58 -4 -21 8 -15 43 10 52 63 25 107 40 157 54 30 9 87 26 125 37 84
26 150 44 230 65 33 9 83 22 110 30 28 8 84 24 125 35 41 12 95 28 120 35 25
8 92 28 150 45 58 16 128 37 155 45 47 13 109 30 250 68 33 9 121 33 195 52
74 19 162 42 195 51 126 33 200 59 200 71 0 22 -138 155 -212 203 -84 56 -204
108 -267 116 -42 6 -56 0 -258 -104 -117 -60 -249 -129 -293 -152 -44 -24
-215 -112 -380 -195 -165 -84 -313 -160 -330 -169 -40 -21 -57 -20 -83 4 -44
41 -31 64 71 123 50 30 191 113 312 185 121 71 258 151 305 178 47 26 123 69
168 96 46 26 88 48 93 48 5 0 9 5 9 10 0 7 -587 10 -1740 10 -957 0 -1740 -3
-1740 -7 0 -8 30 -26 165 -101 33 -19 101 -57 150 -86 50 -29 97 -56 105 -60
8 -4 39 -21 68 -39 159 -97 414 -247 420 -247 4 0 23 -14 42 -29 l35 -29 -18
-36 c-26 -56 -44 -52 -252 58 -55 29 -172 90 -260 136 -177 92 -306 160 -357
188 -53 30 -235 126 -342 181 l-99 51 -61 -16 c-77 -20 -229 -93 -281 -136
-81 -65 -188 -179 -178 -189 8 -8 242 -76 443 -128 41 -11 118 -32 170 -46 99
-28 164 -46 240 -66 25 -6 61 -17 80 -24 19 -7 64 -21 100 -30 36 -9 74 -20
85 -25 11 -4 88 -26 170 -49 83 -23 173 -48 200 -57 48 -14 178 -51 280 -80
123 -35 250 -82 259 -97 7 -12 7 -20 -1 -28 -9 -9 -29 -8 -85 5 -40 9 -98 21
-128 26 -125 22 -235 43 -355 70 -27 6 -81 17 -120 24 -155 30 -378 77 -386
82 -5 3 -43 11 -86 19 -43 8 -121 24 -173 35 -52 11 -117 25 -145 30 -27 6
-63 15 -80 20 -16 5 -70 16 -120 25 -49 9 -110 21 -135 26 -25 6 -81 17 -125
25 -44 7 -110 20 -147 27 -37 8 -72 11 -77 8 -18 -12 -33 -220 -26 -356 l7
-132 181 -7 c100 -4 234 -11 297 -16 63 -5 164 -10 224 -10 60 0 200 -7 310
-15 111 -8 284 -19 386 -25 356 -18 793 -59 802 -74 12 -17 9 -44 -4 -53 -20
-13 -439 -22 -1343 -29 -551 -4 -844 -9 -852 -16 -10 -8 -13 -73 -13 -264 l0
-254 28 1 c30 0 50 4 277 48 88 17 176 36 195 41 19 6 125 28 235 50 110 22
243 49 295 60 121 26 233 47 340 65 47 7 110 18 140 23 30 6 100 17 155 26 55
8 132 20 170 26 375 59 368 59 363 33 -6 -33 -79 -60 -371 -136 -28 -8 -108
-31 -177 -52 -69 -20 -159 -45 -200 -55 -41 -11 -91 -23 -110 -29 -19 -6 -60
-17 -90 -25 -30 -8 -91 -25 -135 -36 -44 -12 -99 -26 -122 -31 -23 -4 -63 -15
-90 -23 -26 -7 -76 -21 -110 -30 -35 -9 -89 -23 -120 -31 -32 -8 -188 -47
-348 -86 -159 -39 -298 -75 -309 -81 -18 -10 -19 -22 -13 -320 3 -171 8 -312
10 -314 4 -5 149 58 312 136 61 29 146 69 190 90 44 21 145 69 225 108 196 94
407 193 510 239 30 13 71 33 90 43 19 10 105 48 190 85 168 73 342 150 378
167 40 20 105 -34 89 -75 -7 -18 -80 -60 -427 -239 -347 -180 -432 -224 -505
-263 -44 -23 -125 -66 -180 -95 -134 -71 -253 -134 -350 -185 -44 -23 -174
-91 -290 -150 -115 -59 -218 -115 -229 -124 -17 -15 -18 -30 -11 -246 7 -247
-4 -450 -29 -525 -8 -25 -33 -112 -56 -195 -23 -82 -51 -179 -63 -215 l-22
-65 -3 1778 c-2 1725 -1 1780 17 1851 43 165 139 325 263 441 70 65 233 185
252 185 3 0 34 13 68 29 82 37 158 58 293 80 104 18 210 19 2065 17 1771 -2
1964 -4 2047 -19z m-2005 -424 c9 -10 19 -35 22 -57 4 -35 3 -38 -17 -31 -49
16 -85 16 -121 1 -32 -13 -38 -13 -42 -1 -10 25 17 85 44 100 33 19 89 12 114
-12z m-39 -217 c8 -8 19 -28 26 -44 10 -25 26 -35 89 -58 118 -43 211 -115
247 -192 21 -43 12 -55 -28 -38 -105 44 -143 49 -350 49 -204 0 -267 -8 -381
-52 -37 -15 -42 -9 -26 30 32 76 139 162 255 204 67 25 79 33 95 66 25 48 48
60 73 35z m-71 -642 c6 -234 3 -258 -35 -262 l-27 -3 0 224 c0 123 3 227 7
230 3 4 16 7 28 7 22 0 22 -2 27 -196z m156 -37 l2 -228 -32 3 -33 3 -3 195
c-2 107 0 210 3 228 5 29 10 33 33 30 l27 -3 3 -228z m-297 192 c11 -38 10
-385 -1 -414 -7 -20 -16 -26 -33 -23 -22 3 -22 3 -25 223 -2 199 -1 221 15
233 23 16 36 11 44 -19z m417 19 c9 -9 12 -73 12 -228 0 -226 -4 -249 -42
-229 -17 9 -18 26 -18 233 0 122 3 226 7 229 10 11 28 8 41 -5z m-550 -250 l2
-225 -25 -11 c-21 -10 -27 -9 -31 3 -3 8 -4 108 -2 223 2 161 6 213 17 226 31
38 36 12 39 -216z m690 -7 c1 -140 -1 -228 -8 -235 -6 -6 -16 -3 -30 9 -19 17
-20 30 -20 237 l0 219 28 -3 27 -3 3 -224z m-123 -406 c95 -15 192 -57 207
-89 12 -29 -20 -103 -43 -97 -8 2 -44 14 -80 26 -139 47 -327 61 -506 37 -86
-11 -125 -23 -196 -58 -56 -28 -86 -7 -87 58 0 66 55 95 245 129 113 20 315
18 460 -6z m-120 -275 c154 -22 192 -29 245 -48 183 -66 267 -144 246 -227 -8
-32 -26 -32 -55 -1 -43 46 -203 116 -314 137 -87 18 -130 20 -297 16 -163 -4
-207 -8 -270 -26 -80 -24 -158 -63 -231 -117 -26 -19 -52 -34 -58 -34 -7 0
-11 20 -11 52 0 49 3 54 48 97 77 74 203 125 372 150 77 12 242 12 325 1z
m105 -237 c108 -20 212 -68 248 -115 12 -15 7 -14 -40 3 -104 40 -157 54 -309
80 -172 29 -406 -4 -574 -82 -27 -13 -54 -25 -60 -27 -5 -3 4 10 20 28 33 36
130 84 215 107 129 35 336 37 500 6z m-120 -183 c170 -26 349 -87 363 -124 4
-9 13 -69 22 -133 9 -65 20 -141 26 -169 5 -28 14 -93 19 -145 5 -52 18 -159
30 -239 11 -80 23 -170 26 -200 l6 -55 -35 -17 c-27 -13 -38 -14 -45 -5 -5 7
-14 64 -21 127 -7 63 -21 176 -31 250 -11 74 -24 185 -30 245 -6 61 -14 119
-19 131 -5 11 -12 55 -16 98 -7 73 -9 79 -39 97 -17 10 -37 19 -43 19 -18 0
-17 -76 2 -225 8 -66 15 -147 15 -181 0 -33 4 -85 10 -115 5 -30 16 -139 25
-244 8 -104 18 -210 21 -235 l6 -45 -112 -79 c-61 -44 -150 -116 -197 -160
-48 -45 -92 -81 -98 -81 -7 0 -47 33 -89 72 -42 40 -131 111 -196 158 -66 47
-124 94 -129 103 -8 16 7 211 44 582 9 85 18 182 21 215 3 33 9 96 14 140 5
44 6 82 4 85 -3 2 -17 -2 -32 -11 -26 -14 -28 -20 -54 -214 -14 -110 -41 -312
-58 -450 -39 -313 -35 -298 -63 -289 -33 10 -68 45 -62 63 4 13 31 222 65 501
25 206 51 388 60 407 11 25 43 44 126 72 157 53 329 72 464 51z m-1189 -247
l-38 -38 -36 39 -36 38 37 37 37 36 37 -37 37 -37 -38 -38z m2435 -64 l35 -21
-39 -34 c-21 -18 -46 -48 -55 -66 l-16 -33 -15 35 c-16 40 -40 65 -76 78 l-25
9 37 22 c20 12 46 39 58 59 l22 36 20 -32 c11 -17 35 -41 54 -53z m-3044 -518
c62 -22 201 -67 308 -101 243 -77 485 -163 580 -207 193 -88 393 -203 472
-270 142 -122 268 -272 268 -320 0 -34 -21 -28 -91 27 -35 27 -65 45 -67 40
-2 -5 13 -40 32 -77 l36 -67 0 -791 0 -791 31 -58 c17 -31 29 -60 25 -63 -4
-5 -81 58 -106 87 -10 11 -115 95 -148 118 -91 64 -128 86 -243 145 -68 36
-153 77 -189 91 -36 15 -74 31 -85 35 -20 9 -59 24 -200 75 -79 28 -164 55
-275 86 -41 11 -90 25 -108 31 -45 14 -254 68 -327 84 -33 7 -107 24 -165 38
-58 14 -139 33 -180 42 -88 20 -170 45 -170 51 0 3 5 14 10 24 6 10 16 47 24
82 7 35 30 126 51 203 21 77 41 156 45 175 4 19 18 71 30 115 12 44 27 105 34
135 8 30 24 91 36 135 12 44 33 125 46 180 14 55 34 136 45 180 11 44 31 123
44 175 13 52 29 115 36 140 21 81 40 164 52 220 9 45 20 69 34 70 1 0 53 -18
115 -39z m3516 12 c6 -16 20 -71 32 -123 23 -100 138 -562 196 -790 19 -74 41
-162 49 -195 8 -33 31 -121 50 -195 65 -243 125 -485 125 -501 0 -15 -35 -30
-105 -44 -35 -7 -117 -26 -235 -55 -47 -11 -103 -25 -125 -30 -22 -5 -85 -21
-140 -36 -55 -14 -116 -30 -135 -35 -19 -4 -66 -17 -105 -28 -604 -167 -981
-342 -1240 -576 -51 -47 -99 -85 -105 -85 -7 0 2 25 19 56 l32 55 2 807 2 807
38 69 c41 73 38 74 -33 16 -43 -35 -82 -60 -94 -60 -14 0 -4 37 26 92 54 101
212 251 371 351 110 70 386 197 557 258 36 12 70 25 75 29 6 4 91 33 190 65
99 32 257 84 350 115 94 32 175 58 181 59 6 0 16 -11 22 -26z m-3860 -311 c2
-13 -2 -36 -8 -52 -10 -25 -17 -51 -54 -215 -8 -33 -24 -96 -36 -140 -28 -102
-47 -176 -65 -245 -23 -92 -42 -161 -65 -245 -12 -44 -26 -98 -32 -120 -5 -22
-20 -74 -33 -115 -13 -42 -28 -94 -34 -115 -5 -22 -26 -101 -46 -175 -57 -212
-55 -204 -42 -212 15 -10 20 -11 177 -38 69 -12 150 -28 180 -35 122 -29 201
-46 315 -70 227 -46 456 -108 595 -160 19 -7 82 -30 140 -50 123 -44 311 -134
427 -203 92 -56 217 -151 208 -160 -3 -3 -19 4 -35 16 -16 12 -31 22 -33 22
-2 0 -37 18 -78 41 -79 43 -339 159 -358 159 -6 0 -19 4 -29 9 -43 24 -213 69
-462 125 -199 45 -213 47 -315 61 -55 7 -152 22 -215 33 -63 11 -137 23 -165
27 -27 3 -93 12 -145 20 -52 7 -166 21 -252 31 -148 17 -156 19 -147 37 10 17
18 45 54 172 7 28 21 75 30 105 16 55 44 153 69 245 8 28 25 91 40 140 14 50
33 117 42 150 38 142 53 194 74 265 12 41 28 98 35 125 7 28 23 86 35 130 12
44 28 105 36 135 7 30 22 89 34 130 12 41 26 98 31 125 11 60 31 77 84 73 33
-3 41 -7 43 -26z m4196 -40 c4 -20 13 -59 21 -87 7 -27 34 -129 58 -225 68
-264 105 -406 133 -500 30 -104 49 -168 69 -240 8 -30 31 -111 50 -180 19 -69
42 -152 51 -185 30 -108 42 -149 71 -242 l29 -92 -55 -6 c-31 -3 -83 -10 -116
-15 -33 -5 -98 -14 -145 -20 -47 -5 -150 -19 -230 -31 -80 -12 -172 -25 -205
-30 -162 -23 -373 -58 -465 -79 -195 -43 -262 -60 -375 -96 -22 -7 -74 -22
-115 -34 -92 -26 -125 -39 -320 -134 -63 -31 -139 -70 -167 -87 -29 -16 -53
-28 -53 -25 0 12 142 116 220 162 284 167 639 291 1190 414 52 12 113 26 135
31 22 5 63 14 90 19 64 12 142 27 230 45 39 8 98 17 133 21 34 4 65 10 67 14
3 5 -4 37 -15 72 -30 94 -143 511 -215 793 -24 94 -53 206 -65 250 -12 44 -33
125 -46 180 -28 110 -47 184 -69 261 -8 28 -15 62 -15 77 0 23 4 26 43 29 52
4 73 -12 81 -60z m-4474 -114 c0 -2 -7 -25 -16 -53 -8 -27 -29 -102 -45 -165
-16 -63 -40 -151 -53 -195 -14 -44 -34 -111 -45 -150 -66 -229 -159 -538 -196
-655 -39 -121 -74 -236 -131 -428 -20 -67 -18 -66 -107 -77 l-48 -6 7 28 c4
15 13 45 21 67 7 21 13 47 13 57 0 11 4 27 9 37 6 9 22 58 36 107 15 50 30 97
34 105 5 9 12 31 16 50 4 19 19 73 34 120 15 47 38 119 51 160 12 41 33 107
45 145 13 39 57 187 100 330 42 143 80 269 85 280 4 11 20 61 35 110 l28 90
51 21 c47 20 76 28 76 22z m4692 -20 c54 -21 60 -26 69 -63 6 -22 17 -58 24
-80 7 -22 23 -74 35 -115 12 -41 28 -93 35 -115 7 -22 23 -74 35 -115 12 -41
34 -115 49 -165 15 -49 38 -124 50 -165 13 -41 36 -115 52 -165 56 -176 118
-381 139 -455 11 -41 27 -97 35 -125 31 -106 38 -135 34 -139 -2 -2 -33 2 -69
8 l-65 12 -12 44 c-6 25 -26 90 -43 145 -17 55 -35 114 -40 130 -4 17 -54 183
-110 370 -56 187 -113 376 -126 420 -13 44 -39 134 -59 200 -33 112 -85 304
-99 368 -8 33 -7 33 66 5z m-4637 -1789 c39 -6 129 -17 200 -25 199 -22 428
-55 530 -75 28 -5 84 -16 125 -24 307 -56 569 -139 760 -242 101 -54 174 -103
166 -111 -3 -3 -14 2 -24 11 -10 10 -24 17 -31 17 -7 0 -25 7 -39 14 -74 40
-247 105 -322 121 -19 4 -41 11 -50 16 -36 19 -215 60 -365 84 -345 55 -615
68 -856 41 -85 -9 -188 -22 -229 -28 -148 -21 -315 -36 -323 -28 -9 8 85 130
158 204 l44 46 93 -6 c51 -3 125 -10 163 -15z m4826 -46 c81 -84 150 -176 139
-187 -5 -5 -46 -3 -97 3 -120 16 -284 40 -363 52 -36 6 -165 13 -287 16 -228
6 -391 -6 -623 -44 -155 -25 -433 -93 -530 -128 -138 -51 -243 -94 -287 -117
-70 -37 -68 -22 3 24 200 132 567 258 894 307 36 6 126 21 200 35 74 14 180
30 235 36 192 21 370 42 425 49 30 5 96 9 146 10 l91 1 54 -57z m-4221 -257
c210 -29 370 -61 370 -76 0 -4 -8 -6 -17 -4 -10 2 -126 5 -258 7 -286 5 -656
-7 -740 -22 -33 -6 -122 -23 -198 -37 -76 -14 -143 -24 -149 -22 -15 5 96 94
142 114 159 68 515 85 850 40z m3835 19 c154 -8 284 -36 350 -76 61 -37 132
-95 125 -102 -3 -3 -43 4 -90 14 -80 18 -207 39 -345 58 -33 5 -116 10 -185
12 -152 5 -685 1 -757 -5 -29 -3 -53 -1 -53 3 0 9 272 64 405 82 102 13 342
27 395 23 19 -2 89 -6 155 -9z m-1795 -115 c0 -5 -5 -10 -11 -10 -5 0 -7 5 -4
10 3 6 8 10 11 10 2 0 4 -4 4 -10z m-2170 -119 c-22 -13 -71 -19 -215 -31 -71
-5 -159 -14 -195 -20 -36 -5 -123 -17 -195 -26 -71 -8 -140 -18 -152 -21 -36
-8 -27 15 15 36 57 29 107 42 222 56 117 14 544 19 520 6z m4052 -2 c109 -11
182 -29 254 -60 80 -36 49 -41 -96 -18 -36 6 -101 15 -145 19 -222 22 -463 51
-490 59 -44 14 349 14 477 0z m-2167 -74 c128 -33 284 -138 269 -181 -20 -55
-111 -137 -197 -177 -110 -50 -278 -44 -386 13 -92 50 -171 135 -171 185 0 18
108 100 166 126 108 49 217 60 319 34z m-734 -239 c24 -16 87 -72 139 -126
103 -104 189 -163 300 -201 54 -19 86 -23 185 -23 109 -1 128 2 206 30 114 40
204 103 312 214 49 49 107 100 130 113 l42 22 1137 0 c625 0 1140 -3 1144 -7
12 -13 -26 -46 -85 -75 l-56 -28 -1093 -3 -1093 -3 -29 -47 c-53 -85 -94 -133
-165 -189 -185 -146 -411 -196 -630 -138 -155 41 -334 173 -405 299 -18 31
-37 59 -43 63 -7 5 -500 10 -1097 13 l-1085 5 -50 23 c-27 13 -63 35 -78 50
l-29 27 34 6 c18 4 535 6 1149 5 l1115 -1 45 -29z m-1671 -328 c22 -7 243 -14
600 -18 520 -7 571 -9 636 -27 77 -22 264 -110 264 -125 0 -5 -265 -7 -662 -5
-640 3 -665 4 -730 24 -95 30 -186 76 -235 118 -24 20 -43 40 -43 44 0 10 128
2 170 -11z m4770 15 c0 -3 -17 -22 -37 -40 -46 -42 -131 -86 -232 -121 l-76
-27 -669 -3 c-603 -3 -668 -1 -656 13 7 8 17 15 23 15 6 0 18 6 26 13 25 21
139 68 216 89 64 18 119 21 635 27 311 4 572 10 580 14 12 6 81 16 178 26 6 0
12 -2 12 -6z"/>
<path d="M3919 4781 c-29 -29 -29 -30 -29 -150 l0 -121 100 0 100 0 0 105 c0
154 -22 195 -105 195 -27 0 -44 -8 -66 -29z"/>
<path d="M3921 4194 l-32 -35 3 -132 3 -132 95 0 95 0 3 120 c3 130 -5 163
-46 195 -40 32 -85 26 -121 -16z"/>
<path d="M2305 3936 c-27 -94 -27 -94 115 -137 295 -89 365 -111 491 -158 154
-56 325 -129 419 -179 181 -95 237 -126 262 -143 43 -31 48 -25 48 56 l0 74
-71 47 c-181 118 -575 291 -884 389 -211 66 -234 73 -286 84 -25 6 -53 13 -62
17 -13 4 -19 -6 -32 -50z"/>
<path d="M2232 3633 c-6 -21 -13 -54 -16 -75 -7 -40 -15 -36 114 -71 206 -56
543 -160 605 -188 11 -4 67 -27 125 -49 154 -61 352 -158 464 -228 54 -34 102
-62 107 -62 5 0 9 36 9 79 l0 80 -46 30 c-25 17 -48 31 -51 31 -4 0 -14 6 -22
14 -21 18 -234 125 -331 166 -41 17 -84 35 -95 40 -72 32 -191 76 -325 119
-152 49 -191 61 -395 116 -55 15 -108 30 -117 32 -13 4 -19 -4 -26 -34z"/>
<path d="M2165 3348 c-26 -75 -35 -106 -35 -119 0 -12 26 -25 98 -48 53 -17
113 -34 132 -37 19 -4 40 -10 45 -14 6 -4 26 -11 45 -15 48 -10 407 -130 500
-167 263 -105 422 -183 565 -277 55 -36 106 -70 113 -74 9 -6 12 12 12 81 l0
90 -67 45 c-65 44 -330 182 -423 222 -25 10 -67 28 -95 40 -27 12 -61 26 -75
30 -14 4 -38 13 -55 20 -70 30 -441 149 -659 210 -103 29 -95 28 -101 13z"/>
<path d="M3770 2537 c0 -372 3 -682 6 -691 3 -9 10 -16 15 -16 5 0 8 285 7
687 -2 538 -6 687 -15 691 -10 3 -13 -136 -13 -671z"/>
<path d="M2084 3023 c-3 -10 -10 -29 -15 -43 -5 -14 -10 -40 -11 -59 l-3 -34
70 -19 c73 -19 153 -42 220 -63 22 -7 74 -22 115 -35 253 -75 659 -234 828
-322 99 -52 101 -53 225 -135 61 -40 114 -73 119 -73 4 0 8 38 8 84 l0 84 -52
39 c-78 58 -160 105 -325 187 -193 97 -378 171 -588 236 -38 12 -86 28 -105
35 -58 21 -133 44 -175 54 -22 5 -98 25 -168 45 -70 20 -130 36 -133 36 -2 0
-7 -8 -10 -17z"/>
<path d="M2000 2696 c-18 -48 -40 -129 -35 -135 2 -4 30 -13 62 -20 164 -35
257 -56 348 -79 55 -13 125 -30 155 -37 182 -45 430 -124 535 -170 17 -8 58
-25 92 -39 58 -24 157 -75 224 -115 105 -62 132 -80 194 -128 l70 -54 3 51 c2
28 -2 58 -8 65 -17 21 -193 136 -280 184 -68 37 -339 171 -346 171 -3 0 -20 6
-37 14 -70 32 -120 50 -317 116 -205 68 -273 89 -505 155 -27 7 -72 20 -98 28
-47 14 -49 14 -57 -7z"/>
<path d="M5635 3983 c-137 -31 -487 -144 -646 -209 -62 -26 -136 -55 -164 -66
-74 -29 -361 -173 -430 -217 l-60 -38 -3 -76 c-2 -59 0 -77 11 -77 7 0 17 4
22 9 6 5 27 19 48 30 20 12 52 29 70 39 236 133 583 273 957 385 290 87 273
77 245 144 -8 19 -15 46 -15 59 0 13 -3 23 -7 23 -5 -1 -17 -3 -28 -6z"/>
<path d="M5690 3661 c-8 -5 -87 -28 -175 -51 -88 -23 -174 -49 -192 -56 -17
-8 -36 -14 -42 -14 -28 0 -328 -108 -438 -157 -28 -13 -54 -23 -57 -23 -25 0
-308 -144 -388 -198 l-68 -45 0 -83 c0 -46 4 -84 8 -84 5 0 46 25 91 55 44 30
150 88 234 129 149 73 423 186 450 186 7 0 17 3 21 7 16 16 407 135 576 175
66 15 69 20 55 81 -22 90 -33 102 -75 78z"/>
<path d="M5755 3343 c-27 -8 -68 -19 -90 -25 -22 -5 -54 -16 -72 -24 -17 -8
-37 -14 -45 -14 -7 0 -33 -7 -58 -15 -25 -8 -99 -31 -165 -51 -66 -19 -135
-42 -153 -50 -18 -8 -37 -14 -42 -14 -10 0 -273 -101 -308 -119 -9 -4 -33 -15
-52 -24 -146 -66 -275 -134 -377 -200 l-63 -41 0 -88 c0 -48 2 -88 4 -88 2 0
40 24 83 53 237 159 447 252 943 417 69 23 148 47 175 55 28 7 89 24 138 39
48 14 94 26 102 26 8 0 31 8 50 17 28 14 35 22 31 38 -18 75 -33 119 -41 121
-6 1 -32 -5 -60 -13z"/>
<path d="M4176 3194 c-3 -9 -6 -321 -6 -695 0 -597 2 -679 15 -679 13 0 15 84
15 695 0 401 -4 695 -9 695 -5 0 -12 -7 -15 -16z"/>
<path d="M5825 3017 c-38 -10 -90 -23 -115 -28 -25 -5 -53 -14 -62 -19 -10 -6
-25 -10 -33 -10 -9 0 -41 -8 -73 -18 -31 -10 -91 -29 -132 -41 -41 -13 -84
-27 -95 -31 -11 -5 -36 -13 -55 -19 -223 -62 -648 -254 -825 -374 -114 -77
-104 -62 -105 -159 0 -49 2 -88 5 -88 3 0 27 15 53 34 127 89 340 205 517 281
130 57 315 127 385 146 19 6 64 21 100 34 36 13 99 33 140 45 41 12 95 28 120
35 77 23 153 44 218 61 34 9 65 20 67 24 3 5 -2 32 -11 61 -27 92 -20 87 -99
66z"/>
<path d="M5905 2695 c-27 -7 -90 -25 -140 -40 -185 -56 -219 -65 -236 -65 -10
0 -20 -4 -24 -9 -3 -5 -20 -13 -38 -16 -61 -13 -352 -114 -462 -160 -202 -85
-506 -248 -632 -339 -42 -31 -42 -32 -43 -95 l0 -63 43 34 c83 68 165 128 175
128 6 0 12 4 14 9 4 11 172 99 270 142 81 35 239 93 308 114 229 68 419 119
545 146 55 11 127 27 161 35 33 8 70 14 81 14 32 0 95 29 91 43 -26 92 -43
137 -52 136 -6 0 -33 -7 -61 -14z"/>
</g>
</svg>
