<?xml version="1.0" standalone="no"?>
<!DOCTYPE svg PUBLIC "-//W3C//DTD SVG 20010904//EN"
 "http://www.w3.org/TR/2001/REC-SVG-20010904/DTD/svg10.dtd">
<svg version="1.0" xmlns="http://www.w3.org/2000/svg"
 width="640.000000pt" height="640.000000pt" viewBox="0 0 640.000000 640.000000"
 preserveAspectRatio="xMidYMid meet">

<g transform="translate(0.000000,640.000000) scale(0.100000,-0.100000)"
fill="#000000" stroke="none">
<path d="M2795 5234 c-231 -636 -423 -1158 -427 -1160 -4 -2 -534 -31 -1178
-63 -645 -33 -1174 -61 -1176 -64 -3 -2 407 -354 911 -782 503 -427 915 -784
915 -792 0 -8 -137 -544 -305 -1190 -168 -646 -305 -1176 -305 -1179 0 -2 6
-4 14 -4 7 0 451 299 986 665 535 366 977 665 982 665 5 0 444 -299 975 -666
559 -385 973 -664 983 -662 15 3 -20 147 -286 1188 l-304 1185 25 22 c14 12
423 358 910 768 487 411 885 753 885 760 0 15 -35 18 -445 40 -148 8 -481 26
-740 40 -258 14 -622 34 -808 44 -185 9 -341 22 -346 27 -4 5 -194 528 -422
1161 -228 634 -416 1153 -419 1153 -3 0 -194 -520 -425 -1156z m760 -502 l330
-917 490 -26 c270 -15 679 -37 910 -48 231 -12 432 -25 447 -29 24 -6 -31 -55
-703 -621 -401 -338 -729 -617 -729 -621 0 -3 108 -428 240 -944 133 -517 239
-942 238 -947 -2 -5 -1106 748 -1509 1031 l-56 39 -783 -535 c-430 -294 -784
-533 -787 -531 -4 4 469 1843 484 1883 2 6 -324 290 -725 630 l-730 619 37 7
c20 4 421 25 891 48 470 22 876 43 901 46 l46 6 334 918 c184 505 336 916 339
913 3 -2 154 -417 335 -921z"/>
</g>
</svg>
