<?xml version="1.0" standalone="no"?>
<!DOCTYPE svg PUBLIC "-//W3C//DTD SVG 20010904//EN"
 "http://www.w3.org/TR/2001/REC-SVG-20010904/DTD/svg10.dtd">
<svg version="1.0" xmlns="http://www.w3.org/2000/svg"
 width="640.000000pt" height="640.000000pt" viewBox="0 0 640.000000 640.000000"
 preserveAspectRatio="xMidYMid meet">

<g transform="translate(0.000000,640.000000) scale(0.100000,-0.100000)"
fill="#000000" stroke="none">
<path d="M2795 5234 c-231 -636 -423 -1158 -427 -1160 -4 -2 -534 -31 -1178
-63 -645 -33 -1174 -61 -1176 -64 -3 -2 407 -354 911 -782 503 -427 915 -784
915 -792 0 -8 -137 -544 -305 -1190 -168 -646 -305 -1176 -305 -1179 0 -2 6
-4 14 -4 7 0 451 299 986 665 535 366 977 665 982 665 5 0 444 -299 975 -666
559 -385 973 -664 983 -662 15 3 -20 147 -286 1188 l-304 1185 25 22 c14 12
423 358 910 768 487 411 885 753 885 760 0 15 -35 18 -445 40 -148 8 -481 26
-740 40 -258 14 -622 34 -808 44 -185 9 -341 22 -346 27 -4 5 -194 528 -422
1161 -228 634 -416 1153 -419 1153 -3 0 -194 -520 -425 -1156z m760 -499 c180
-500 330 -912 332 -915 3 -3 424 -27 936 -55 512 -27 930 -54 930 -58 -1 -5
-325 -281 -720 -614 -395 -332 -722 -608 -726 -612 -4 -5 100 -432 233 -950
133 -518 240 -946 238 -951 -2 -7 -983 661 -1489 1015 l-76 53 -774 -530
c-426 -291 -782 -534 -791 -539 -13 -7 -16 -6 -13 3 3 10 338 1296 479 1845
l14 52 -728 618 c-542 459 -724 620 -712 624 9 4 409 26 887 49 479 23 893 44
921 47 l50 5 335 919 c184 505 337 915 340 911 4 -4 154 -416 334 -917z"/>
</g>
</svg>
